name rise34.3697peak60.0498fall86.3158.mot
datacolumns 19
datarows 30
range 14.77160600000000 14.81994000000000
endheader
time	ground_force1_vx	ground_force1_vy	ground_force1_vz	ground_force1_px	ground_force1_py	ground_force1_pz	ground_force2_vx	ground_force2_vy	ground_force2_vz	ground_force2_px	ground_force2_py	ground_force2_pz	ground_torque1_x	ground_torque1_y	ground_torque1_z	ground_torque2_x	ground_torque2_y	ground_torque2_z	
14.77160600000000	55.88347800000000	765.89192700000001	57.56402800000000	0.41756400000000	0.00000000000000	0.11748500000000	0.00000000000000	0.00000000000000	0.00000000000000	0.00000000000000	0.00000000000000	0.00000000000000	0.00000000000000	33.99107000000000	0.00000000000000	0.00000000000000	0.00000000000000	0.00000000000000	
14.77327700000000	55.20975600000000	768.99294799999996	57.83881200000000	0.41598800000000	0.00000000000000	0.11757300000000	0.00000000000000	0.00000000000000	0.00000000000000	0.00000000000000	0.00000000000000	0.00000000000000	0.00000000000000	34.18994200000000	0.00000000000000	0.00000000000000	0.00000000000000	0.00000000000000	
14.77494400000000	54.53231200000000	771.97266300000001	58.11287000000000	0.41442300000000	0.00000000000000	0.11766300000000	0.00000000000000	0.00000000000000	0.00000000000000	0.00000000000000	0.00000000000000	0.00000000000000	0.00000000000000	34.38947300000000	0.00000000000000	0.00000000000000	0.00000000000000	0.00000000000000	
14.77661500000000	53.85191500000000	774.82858899999997	58.38552700000000	0.41287200000000	0.00000000000000	0.11775300000000	0.00000000000000	0.00000000000000	0.00000000000000	0.00000000000000	0.00000000000000	0.00000000000000	0.00000000000000	34.58913300000000	0.00000000000000	0.00000000000000	0.00000000000000	0.00000000000000	
14.77827800000000	53.16929100000000	777.55833700000005	58.65604400000000	0.41133400000000	0.00000000000000	0.11784500000000	0.00000000000000	0.00000000000000	0.00000000000000	0.00000000000000	0.00000000000000	0.00000000000000	0.00000000000000	34.78834400000000	0.00000000000000	0.00000000000000	0.00000000000000	0.00000000000000	
14.77994800000000	52.48512200000000	780.15962600000000	58.92362900000000	0.40981200000000	0.00000000000000	0.11793600000000	0.00000000000000	0.00000000000000	0.00000000000000	0.00000000000000	0.00000000000000	0.00000000000000	0.00000000000000	34.98648600000000	0.00000000000000	0.00000000000000	0.00000000000000	0.00000000000000	
14.78161000000000	51.80004500000000	782.63030200000003	59.18743600000000	0.40830600000000	0.00000000000000	0.11802800000000	0.00000000000000	0.00000000000000	0.00000000000000	0.00000000000000	0.00000000000000	0.00000000000000	0.00000000000000	35.18290700000000	0.00000000000000	0.00000000000000	0.00000000000000	0.00000000000000	
14.78328000000000	51.11465800000000	784.96834899999999	59.44657900000000	0.40681800000000	0.00000000000000	0.11811900000000	0.00000000000000	0.00000000000000	0.00000000000000	0.00000000000000	0.00000000000000	0.00000000000000	0.00000000000000	35.37692100000000	0.00000000000000	0.00000000000000	0.00000000000000	0.00000000000000	
14.78494200000000	50.42951900000000	787.17190500000004	59.70013400000000	0.40534900000000	0.00000000000000	0.11821100000000	0.00000000000000	0.00000000000000	0.00000000000000	0.00000000000000	0.00000000000000	0.00000000000000	0.00000000000000	35.56782000000000	0.00000000000000	0.00000000000000	0.00000000000000	0.00000000000000	
14.78660600000000	49.74514400000000	789.23927700000002	59.94715100000000	0.40389800000000	0.00000000000000	0.11830200000000	0.00000000000000	0.00000000000000	0.00000000000000	0.00000000000000	0.00000000000000	0.00000000000000	0.00000000000000	35.75487300000000	0.00000000000000	0.00000000000000	0.00000000000000	0.00000000000000	
14.78827800000000	49.06201500000000	791.16895199999999	60.18665600000000	0.40246800000000	0.00000000000000	0.11839300000000	0.00000000000000	0.00000000000000	0.00000000000000	0.00000000000000	0.00000000000000	0.00000000000000	0.00000000000000	35.93733700000000	0.00000000000000	0.00000000000000	0.00000000000000	0.00000000000000	
14.78994600000000	48.38057800000000	792.95961100000000	60.41766300000000	0.40105800000000	0.00000000000000	0.11848200000000	0.00000000000000	0.00000000000000	0.00000000000000	0.00000000000000	0.00000000000000	0.00000000000000	0.00000000000000	36.11446200000000	0.00000000000000	0.00000000000000	0.00000000000000	0.00000000000000	
14.79160900000000	47.70124100000000	794.61013800000001	60.63917900000000	0.39967000000000	0.00000000000000	0.11857100000000	0.00000000000000	0.00000000000000	0.00000000000000	0.00000000000000	0.00000000000000	0.00000000000000	0.00000000000000	36.28549100000000	0.00000000000000	0.00000000000000	0.00000000000000	0.00000000000000	
14.79328100000000	47.02438500000000	796.11963500000002	60.85021400000000	0.39830300000000	0.00000000000000	0.11865800000000	0.00000000000000	0.00000000000000	0.00000000000000	0.00000000000000	0.00000000000000	0.00000000000000	0.00000000000000	36.44967200000000	0.00000000000000	0.00000000000000	0.00000000000000	0.00000000000000	
14.79494400000000	46.35035800000000	797.48742500000003	61.04978400000000	0.39695800000000	0.00000000000000	0.11874500000000	0.00000000000000	0.00000000000000	0.00000000000000	0.00000000000000	0.00000000000000	0.00000000000000	0.00000000000000	36.60625900000000	0.00000000000000	0.00000000000000	0.00000000000000	0.00000000000000	
14.79660900000000	45.67947800000000	798.71306600000003	61.23692400000000	0.39563500000000	0.00000000000000	0.11882900000000	0.00000000000000	0.00000000000000	0.00000000000000	0.00000000000000	0.00000000000000	0.00000000000000	0.00000000000000	36.75451800000000	0.00000000000000	0.00000000000000	0.00000000000000	0.00000000000000	
14.79827900000000	45.01203900000000	799.79635499999995	61.41068800000000	0.39433500000000	0.00000000000000	0.11891200000000	0.00000000000000	0.00000000000000	0.00000000000000	0.00000000000000	0.00000000000000	0.00000000000000	0.00000000000000	36.89373300000000	0.00000000000000	0.00000000000000	0.00000000000000	0.00000000000000	
14.79994600000000	44.34830900000000	800.73733600000003	61.57016400000000	0.39305600000000	0.00000000000000	0.11899300000000	0.00000000000000	0.00000000000000	0.00000000000000	0.00000000000000	0.00000000000000	0.00000000000000	0.00000000000000	37.02320800000000	0.00000000000000	0.00000000000000	0.00000000000000	0.00000000000000	
14.80161100000000	43.68853100000000	801.53630399999997	61.71447200000000	0.39180000000000	0.00000000000000	0.11907200000000	0.00000000000000	0.00000000000000	0.00000000000000	0.00000000000000	0.00000000000000	0.00000000000000	0.00000000000000	37.14227600000000	0.00000000000000	0.00000000000000	0.00000000000000	0.00000000000000	
14.80327400000000	43.03293100000000	802.19381099999998	61.84277900000000	0.39056700000000	0.00000000000000	0.11914900000000	0.00000000000000	0.00000000000000	0.00000000000000	0.00000000000000	0.00000000000000	0.00000000000000	0.00000000000000	37.25029700000000	0.00000000000000	0.00000000000000	0.00000000000000	0.00000000000000	
14.80494100000000	42.38171000000000	802.71066399999995	61.95429600000000	0.38935500000000	0.00000000000000	0.11922400000000	0.00000000000000	0.00000000000000	0.00000000000000	0.00000000000000	0.00000000000000	0.00000000000000	0.00000000000000	37.34666700000000	0.00000000000000	0.00000000000000	0.00000000000000	0.00000000000000	
14.80660800000000	41.73505600000000	803.08793200000002	62.04829100000000	0.38816400000000	0.00000000000000	0.11929600000000	0.00000000000000	0.00000000000000	0.00000000000000	0.00000000000000	0.00000000000000	0.00000000000000	0.00000000000000	37.43082100000000	0.00000000000000	0.00000000000000	0.00000000000000	0.00000000000000	
14.80827800000000	41.09313800000000	803.32694200000003	62.12409000000000	0.38699500000000	0.00000000000000	0.11936600000000	0.00000000000000	0.00000000000000	0.00000000000000	0.00000000000000	0.00000000000000	0.00000000000000	0.00000000000000	37.50223200000000	0.00000000000000	0.00000000000000	0.00000000000000	0.00000000000000	
14.80994800000000	40.45611000000000	803.42928300000005	62.18108100000000	0.38584700000000	0.00000000000000	0.11943300000000	0.00000000000000	0.00000000000000	0.00000000000000	0.00000000000000	0.00000000000000	0.00000000000000	0.00000000000000	37.56042100000000	0.00000000000000	0.00000000000000	0.00000000000000	0.00000000000000	
14.81160600000000	39.82411400000000	803.39679699999999	62.21872100000000	0.38471900000000	0.00000000000000	0.11949800000000	0.00000000000000	0.00000000000000	0.00000000000000	0.00000000000000	0.00000000000000	0.00000000000000	0.00000000000000	37.60495300000000	0.00000000000000	0.00000000000000	0.00000000000000	0.00000000000000	
14.81327800000000	39.19727800000000	803.23158500000000	62.23653900000000	0.38361000000000	0.00000000000000	0.11955900000000	0.00000000000000	0.00000000000000	0.00000000000000	0.00000000000000	0.00000000000000	0.00000000000000	0.00000000000000	37.63544500000000	0.00000000000000	0.00000000000000	0.00000000000000	0.00000000000000	
14.81494400000000	38.57572000000000	802.93599400000005	62.23413500000000	0.38252100000000	0.00000000000000	0.11961800000000	0.00000000000000	0.00000000000000	0.00000000000000	0.00000000000000	0.00000000000000	0.00000000000000	0.00000000000000	37.65156500000000	0.00000000000000	0.00000000000000	0.00000000000000	0.00000000000000	
14.81661200000000	37.95954900000000	802.51261599999998	62.21118900000000	0.38145000000000	0.00000000000000	0.11967400000000	0.00000000000000	0.00000000000000	0.00000000000000	0.00000000000000	0.00000000000000	0.00000000000000	0.00000000000000	37.65303200000000	0.00000000000000	0.00000000000000	0.00000000000000	0.00000000000000	
14.81827600000000	37.34886300000000	801.96428400000002	62.16745700000000	0.38039600000000	0.00000000000000	0.11972700000000	0.00000000000000	0.00000000000000	0.00000000000000	0.00000000000000	0.00000000000000	0.00000000000000	0.00000000000000	37.63962200000000	0.00000000000000	0.00000000000000	0.00000000000000	0.00000000000000	
14.81994000000000	36.74375500000000	801.29405799999995	62.10277700000000	0.37935800000000	0.00000000000000	0.11977600000000	0.00000000000000	0.00000000000000	0.00000000000000	0.00000000000000	0.00000000000000	0.00000000000000	0.00000000000000	37.61116700000000	0.00000000000000	0.00000000000000	0.00000000000000	0.00000000000000	
